<svg xmlns="http://www.w3.org/2000/svg" viewBox="0 0 760 460" font-family="Microsoft YaHei,PingFang SC,sans-serif"><rect x="0" y="0" width="760" height="460" fill="#f4f4f2"/><rect x="0" y="0" width="760" height="48" fill="#000"/><text x="24" y="30" fill="#fff" font-size="14">Mercedes-Benz · Curate</text><text x="736" y="30" fill="#9a9a9a" font-size="12" text-anchor="end">Owner ▾</text><rect x="24" y="72" width="216" height="336" fill="#fff"/><text x="44" y="104" fill="#1a1a1a" font-size="13" font-weight="700">Knowledge Library</text><text x="44" y="136" fill="#4a4a4a" font-size="12">▾ Policy</text><text x="60" y="158" fill="#4a4a4a" font-size="11.5">Disclosure Requirements</text><text x="60" y="178" fill="#0078D6" font-size="11.5">AML Regulatory Updates</text><text x="44" y="206" fill="#4a4a4a" font-size="12">▾ Risk</text><text x="60" y="228" fill="#4a4a4a" font-size="11.5">Incident Postmortem Cases</text><text x="44" y="256" fill="#4a4a4a" font-size="12">▸ AML</text><rect x="256" y="72" width="480" height="336" fill="#fff"/><rect x="276" y="90" width="64" height="22" rx="11" fill="#0078D6"/><text x="308" y="104.5" fill="#fff" font-size="10" text-anchor="middle">Public</text><rect x="348" y="90" width="100" height="22" rx="11" fill="#f0f0ee"/><text x="398" y="104.5" fill="#6a6a6a" font-size="10" text-anchor="middle">My knowledge</text><rect x="560" y="88" width="156" height="24" rx="6" fill="#fff" stroke="#e6e6e3" stroke-width="1"/><text x="570" y="104" fill="#9a9a9a" font-size="11">检索…</text><text x="276" y="142" fill="#6a6a6a" font-size="11" font-weight="700">Name</text><text x="500" y="142" fill="#6a6a6a" font-size="11" font-weight="700">Status</text><text x="566" y="142" fill="#6a6a6a" font-size="11" font-weight="700">Docs</text><text x="622" y="142" fill="#6a6a6a" font-size="11" font-weight="700">Chunks</text><text x="692" y="142" fill="#6a6a6a" font-size="11" font-weight="700">Cov.</text><text x="276" y="168" fill="#1a1a1a" font-size="11.5">AML Regulatory Updates</text><rect x="500" y="156" width="56" height="17" rx="8.5" fill="#e8f3ec"/><text x="528" y="168" fill="#2ea36b" font-size="10" text-anchor="middle">Ready</text><text x="566" y="168" fill="#4a4a4a" font-size="11.5">24</text><text x="622" y="168" fill="#4a4a4a" font-size="11.5">1,204</text><text x="692" y="168" fill="#4a4a4a" font-size="11.5">92%</text><line x1="276" y1="177" x2="716" y2="177" stroke="#e6e6e3"/><text x="276" y="198" fill="#1a1a1a" font-size="11.5">Disclosure Requirements</text><rect x="500" y="186" width="56" height="17" rx="8.5" fill="#e8f3ec"/><text x="528" y="198" fill="#2ea36b" font-size="10" text-anchor="middle">Ready</text><text x="566" y="198" fill="#4a4a4a" font-size="11.5">18</text><text x="622" y="198" fill="#4a4a4a" font-size="11.5">860</text><text x="692" y="198" fill="#4a4a4a" font-size="11.5">88%</text><line x1="276" y1="207" x2="716" y2="207" stroke="#e6e6e3"/><text x="276" y="228" fill="#1a1a1a" font-size="11.5">Incident Postmortem Cases</text><rect x="500" y="216" width="56" height="17" rx="8.5" fill="#fbf3d9"/><text x="528" y="228" fill="#8a6d1a" font-size="10" text-anchor="middle">Building</text><text x="566" y="228" fill="#4a4a4a" font-size="11.5">9</text><text x="622" y="228" fill="#4a4a4a" font-size="11.5">312</text><text x="692" y="228" fill="#4a4a4a" font-size="11.5">61%</text><line x1="276" y1="237" x2="716" y2="237" stroke="#e6e6e3"/><text x="276" y="258" fill="#1a1a1a" font-size="11.5">Vendor Risk Assessments</text><rect x="500" y="246" width="56" height="17" rx="8.5" fill="#f0f0ee"/><text x="528" y="258" fill="#6a6a6a" font-size="10" text-anchor="middle">Draft</text><text x="566" y="258" fill="#4a4a4a" font-size="11.5">3</text><text x="622" y="258" fill="#4a4a4a" font-size="11.5">40</text><text x="692" y="258" fill="#4a4a4a" font-size="11.5">12%</text><path d="M0 48 H760 V460 H0 Z M268 154 h456 v30 h-456 Z" fill="rgba(5,10,18,0.62)" fill-rule="evenodd"/><rect x="264" y="150" width="464" height="38" rx="8" fill="none" stroke="#4DA8EE" stroke-width="2" stroke-dasharray="6 5"/><rect x="280" y="236" width="400" height="138" rx="10" fill="#fff"/><text x="298" y="264" fill="#1a1a1a" font-size="14" font-weight="700">第 2 步 · 库列表</text><text x="298" y="288" fill="#4a4a4a" font-size="12">每行 = 一个知识库;关注 Status / Docs /</text><text x="298" y="308" fill="#4a4a4a" font-size="12">Chunks / Coverage 四列,点击可进入库详情。</text><circle cx="300" cy="356" r="4" fill="#0078D6"/><circle cx="315" cy="356" r="4" fill="#0078D6"/><circle cx="330" cy="356" r="4" fill="#d8d8d6"/><circle cx="345" cy="356" r="4" fill="#d8d8d6"/><circle cx="360" cy="356" r="4" fill="#d8d8d6"/><circle cx="375" cy="356" r="4" fill="#d8d8d6"/><text x="566" y="360" fill="#6a6a6a" font-size="11" text-anchor="end">Skip</text><rect x="576" y="342" width="88" height="26" rx="6" fill="#0078D6"/><text x="620" y="360" fill="#fff" font-size="11.5" text-anchor="middle">Next →</text><text x="664" y="262" fill="#9a9a9a" font-size="11" text-anchor="end">2/6</text></svg>