<svg xmlns="http://www.w3.org/2000/svg" viewBox="0 0 760 460" font-family="Microsoft YaHei,PingFang SC,sans-serif"><rect x="0" y="0" width="760" height="460" fill="#f4f4f2"/><rect x="0" y="0" width="760" height="48" fill="#000"/><text x="24" y="30" fill="#fff" font-size="14">Mercedes-Benz · Curate</text><text x="736" y="30" fill="#9a9a9a" font-size="12" text-anchor="end">Viewer ▾</text><rect x="180" y="100" width="400" height="264" rx="14" fill="#fff"/><circle cx="380" cy="156" r="24" fill="#f0f4f8"/><path d="M373 156 v-4 a7 7 0 0 1 14 0 v4" stroke="#0078D6" stroke-width="3" fill="none"/><rect x="371" y="155" width="18" height="15" rx="3" fill="#0078D6"/><text x="380" y="208" fill="#1a1a1a" font-size="16" font-weight="700" text-anchor="middle">No access</text><text x="380" y="236" fill="#6a6a6a" font-size="12" text-anchor="middle">该库为受限库。请在 Alice 中申请以下角色:</text><rect x="300" y="250" width="160" height="24" rx="12" fill="#f0f4f8"/><text x="380" y="265.5" fill="#0078D6" font-size="10" text-anchor="middle">GRC_KB_AML_READ</text><rect x="300" y="296" width="160" height="32" rx="6" fill="#0078D6"/><text x="380" y="317" fill="#fff" font-size="12" text-anchor="middle">Request in Alice →</text><path d="M0 48 H760 V460 H0 Z M180 100 h400 v264 h-400 Z" fill="rgba(5,10,18,0.62)" fill-rule="evenodd"/><rect x="176" y="96" width="408" height="272" rx="8" fill="none" stroke="#4DA8EE" stroke-width="2" stroke-dasharray="6 5"/><rect x="190" y="372" width="380" height="138" rx="10" fill="#fff"/><text x="208" y="400" fill="#1a1a1a" font-size="14" font-weight="700">第 3 步 · 受限库申请</text><text x="208" y="424" fill="#4a4a4a" font-size="12">Viewer 访问受限库会看到此页;</text><text x="208" y="444" fill="#4a4a4a" font-size="12">按角色 ID 在 Alice 中申请即可。</text><circle cx="210" cy="492" r="4" fill="#0078D6"/><circle cx="225" cy="492" r="4" fill="#0078D6"/><circle cx="240" cy="492" r="4" fill="#0078D6"/><circle cx="255" cy="492" r="4" fill="#d8d8d6"/><text x="456" y="496" fill="#6a6a6a" font-size="11" text-anchor="end">Skip</text><rect x="466" y="478" width="88" height="26" rx="6" fill="#0078D6"/><text x="510" y="496" fill="#fff" font-size="11.5" text-anchor="middle">Next →</text><text x="554" y="398" fill="#9a9a9a" font-size="11" text-anchor="end">3/4</text></svg>