<svg xmlns="http://www.w3.org/2000/svg" viewBox="0 0 760 460" font-family="Microsoft YaHei,PingFang SC,sans-serif">
<rect width="760" height="460" fill="#0a0a0a"/>
<rect x="0" y="0" width="760" height="48" fill="#000"/>
<text x="24" y="30" fill="#fff" font-size="14">Mercedes-Benz · Curate</text>
<text x="640" y="30" fill="#9a9a9a" font-size="12">Owner ▾</text>
<rect x="180" y="70" width="400" height="330" rx="14" fill="#fff"/>
<text x="210" y="112" font-size="18" font-weight="700" fill="#1a1a1a">欢迎使用 Curate 知识治理</text>
<text x="210" y="136" font-size="12" fill="#6a6a6a">完成下面 5 步,快速上手(约 3 分钟)</text>
<rect x="210" y="150" width="340" height="6" rx="3" fill="#eee"/>
<rect x="210" y="150" width="136" height="6" rx="3" fill="#0078D6"/>
<text x="556" y="158" font-size="11" fill="#6a6a6a" text-anchor="end">2/5</text>
<g font-size="13" fill="#1a1a1a">
<circle cx="222" cy="186" r="8" fill="#2ea36b"/><text x="222" y="190" fill="#fff" font-size="11" text-anchor="middle">✓</text><text x="240" y="190">浏览知识库目录</text>
<circle cx="222" cy="218" r="8" fill="#2ea36b"/><text x="222" y="222" fill="#fff" font-size="11" text-anchor="middle">✓</text><text x="240" y="222">打开一个 Ready 库,看懂管线</text>
<circle cx="222" cy="250" r="8" fill="none" stroke="#0078D6" stroke-width="2"/><text x="240" y="254">给知识库添加文档</text>
<circle cx="222" cy="282" r="8" fill="none" stroke="#c9c9c7" stroke-width="2"/><text x="240" y="286" fill="#6a6a6a">执行一次一键构建</text>
<circle cx="222" cy="314" r="8" fill="none" stroke="#c9c9c7" stroke-width="2"/><text x="240" y="318" fill="#6a6a6a">查看权限与设置</text>
</g>
<rect x="398" y="240" width="152" height="30" rx="6" fill="#0078D6"/>
<text x="474" y="260" fill="#fff" font-size="12.5" text-anchor="middle">去完成 →</text>
<rect x="210" y="352" width="160" height="30" rx="6" fill="none" stroke="#c9c9c7"/>
<text x="290" y="372" font-size="12" fill="#6a6a6a" text-anchor="middle">跳过,稍后再看</text>
<rect x="382" y="352" width="168" height="30" rx="6" fill="none" stroke="#c9c9c7"/>
<text x="466" y="372" font-size="12" fill="#6a6a6a" text-anchor="middle">下次不再显示</text>
</svg>
